<?xml version="1.0" encoding="utf-8"?>
<!-- Generator: Adobe Illustrator 27.3.1, SVG Export Plug-In . SVG Version: 6.00 Build 0)  -->
<svg version="1.1" id="Layer_1" xmlns="http://www.w3.org/2000/svg" xmlns:xlink="http://www.w3.org/1999/xlink" x="0px" y="0px"
	 viewBox="0 0 370 365" style="enable-background:new 0 0 370 365;" xml:space="preserve">
<style type="text/css">
	
		.st0{clip-path:url(#SVGID_00000128473808123550943030000010029676723703474101_);fill:url(#SVGID_00000024715337089290822400000005990002439909456823_);}
	.st1{clip-path:url(#SVGID_00000128473808123550943030000010029676723703474101_);}
	.st2{fill:#FFFFFF;}
</style>
<g>
	<defs>
		<path id="SVGID_1_" d="M15.1,182.5c0,95,77.3,172.4,172.4,172.4s172.4-77.3,172.4-172.4S282.5,10.1,187.5,10.1
			S15.1,87.5,15.1,182.5"/>
	</defs>
	<clipPath id="SVGID_00000068659575574254031060000012333485539276398736_">
		<use xlink:href="#SVGID_1_"  style="overflow:visible;"/>
	</clipPath>
	
		<linearGradient id="SVGID_00000058577655265056278080000016998144218325262755_" gradientUnits="userSpaceOnUse" x1="-717.2245" y1="851.415" x2="-716.2245" y2="851.415" gradientTransform="matrix(252.6042 252.6042 252.6042 -252.6042 -33835.0352 396301.9688)">
		<stop  offset="0" style="stop-color:#1DC0CC"/>
		<stop  offset="0.5" style="stop-color:#8E15F8"/>
		<stop  offset="1" style="stop-color:#E20000"/>
	</linearGradient>
	
		<polygon style="clip-path:url(#SVGID_00000068659575574254031060000012333485539276398736_);fill:url(#SVGID_00000058577655265056278080000016998144218325262755_);" points="
		187.5,-162.3 532.3,182.5 187.5,527.3 -157.3,182.5 	"/>
	<g style="clip-path:url(#SVGID_00000068659575574254031060000012333485539276398736_);">
		<path class="st2" d="M277.1,150.2v100.3h-33.8V150.2c0-15-12.2-27.2-27.2-27.2V89.3C249.7,89.3,277.1,116.6,277.1,150.2"/>
		<path class="st2" d="M158.9,157.9v33.8c-15,0-27.2,12.2-27.2,27.2v31.7H97.9v-31.7C97.9,185.2,125.3,157.9,158.9,157.9"/>
		<rect x="170.6" y="122.9" class="st2" width="33.8" height="127.6"/>
	</g>
</g>
</svg>
