<?xml version="1.0" encoding="utf-8"?>
<!-- Generator: Adobe Illustrator 27.3.1, SVG Export Plug-In . SVG Version: 6.00 Build 0)  -->
<svg version="1.1" id="Layer_1" xmlns="http://www.w3.org/2000/svg" xmlns:xlink="http://www.w3.org/1999/xlink" x="0px" y="0px"
	 viewBox="0 0 431 314" style="enable-background:new 0 0 431 314;" xml:space="preserve">
<style type="text/css">
	
		.st0{clip-path:url(#SVGID_00000151509742170338930270000010823428251566347907_);fill:url(#SVGID_00000010308820631918575200000013447929033866309783_);}
</style>
<g>
	<defs>
		<path id="SVGID_1_" d="M124.9,146.1v32.4h34.5v-32.4c0-15.3,12.5-27.8,27.8-27.8V83.8C152.8,83.8,124.9,111.7,124.9,146.1
			 M199.2,178.5h34.5V48.1h-34.5V178.5z M245.7,48.2c15.3,0,27.8,12.5,27.8,27.8v102.5H308V76c0-34.4-28-62.3-62.3-62.3V48.2z"/>
	</defs>
	<clipPath id="SVGID_00000052790520238439436070000012298973201468835226_">
		<use xlink:href="#SVGID_1_"  style="overflow:visible;"/>
	</clipPath>
	
		<linearGradient id="SVGID_00000152256273058445575130000003565642006620048008_" gradientUnits="userSpaceOnUse" x1="-732.7398" y1="615.9412" x2="-731.7398" y2="615.9412" gradientTransform="matrix(116.3247 116.3247 116.3247 -116.3247 13769.9697 156947.9531)">
		<stop  offset="0" style="stop-color:#1DC0CC"/>
		<stop  offset="0.5" style="stop-color:#8E15F8"/>
		<stop  offset="1" style="stop-color:#E20000"/>
	</linearGradient>
	
		<polygon style="clip-path:url(#SVGID_00000052790520238439436070000012298973201468835226_);fill:url(#SVGID_00000152256273058445575130000003565642006620048008_);" points="
		216.5,-77.9 390.4,96.1 216.5,270 42.5,96.1 	"/>
</g>
<g>
	<path d="M40.5,298.8c-4,0-7.6-0.7-10.7-2c-3.1-1.4-5.6-3.4-7.4-6.2c-1.8-2.8-2.7-6.2-2.7-10.4c0-3.5,0.6-6.5,1.9-8.9
		c1.2-2.4,2.9-4.4,5.1-5.9c2.2-1.5,4.7-2.7,7.5-3.4c2.8-0.8,5.9-1.3,9.1-1.6c3.6-0.3,6.5-0.7,8.7-1.1c2.2-0.4,3.8-0.9,4.8-1.6
		c1-0.7,1.5-1.7,1.5-3v-0.2c0-2.1-0.7-3.8-2.2-4.9c-1.5-1.2-3.4-1.7-5.9-1.7c-2.7,0-4.8,0.6-6.4,1.7c-1.6,1.2-2.7,2.8-3.1,4.8
		L22,253.6c0.6-3.9,2-7.3,4.3-10.3c2.3-3,5.5-5.4,9.5-7.2c4-1.7,8.9-2.6,14.5-2.6c4,0,7.8,0.5,11.2,1.4c3.4,1,6.4,2.3,8.9,4.1
		s4.5,4,5.9,6.6c1.4,2.6,2.1,5.6,2.1,9v43.1h-19v-8.8h-0.5c-1.1,2.1-2.6,4-4.3,5.4c-1.7,1.5-3.8,2.6-6.1,3.3
		C46.1,298.4,43.4,298.8,40.5,298.8 M46.7,285.6c2.2,0,4.1-0.4,5.9-1.3c1.7-0.9,3.1-2.1,4.2-3.7c1-1.6,1.6-3.4,1.6-5.4v-6
		c-0.6,0.3-1.3,0.6-2.1,0.8c-0.8,0.2-1.7,0.5-2.7,0.7c-1,0.2-2,0.4-3,0.6c-1,0.2-2,0.3-2.9,0.5c-1.9,0.3-3.5,0.8-4.8,1.4
		c-1.3,0.6-2.4,1.4-3.1,2.5c-0.7,1-1.1,2.2-1.1,3.6c0,2.1,0.8,3.7,2.2,4.8C42.5,285,44.4,285.6,46.7,285.6"/>
	<path d="M84.2,297.7v-63.4h19.6v11.6h0.7c1.2-4.2,3-7.3,5.7-9.3c2.6-2,5.7-3.1,9.1-3.1c0.9,0,1.9,0.1,2.9,0.2
		c1,0.1,1.9,0.3,2.8,0.6v17.5c-1-0.3-2.2-0.6-3.8-0.8s-2.9-0.3-4.1-0.3c-2.4,0-4.5,0.5-6.5,1.6c-1.9,1.1-3.4,2.5-4.5,4.4
		c-1.1,1.9-1.6,4.1-1.6,6.6v34.4H84.2z"/>
	<path d="M168,282.2c-0.4,0.1-1.1,0.2-2,0.4c-0.9,0.2-1.7,0.2-2.5,0.2c-1.1,0-2-0.2-2.8-0.5c-0.8-0.3-1.4-0.9-1.8-1.6
		c-0.4-0.8-0.6-1.8-0.6-3v-28.6h11.4v-14.9h-11.4v-15.2h-20.2v15.2H130v14.9h8.4V280c-0.1,4.3,0.8,7.9,2.6,10.7
		c1.8,2.8,4.3,4.9,7.7,6.3c3.4,1.3,7.4,1.9,12.2,1.7c2.4-0.1,4.5-0.4,6.2-0.8c1.7-0.4,3.1-0.8,4.1-1L168,282.2z"/>
	<path d="M195.9,261.6v36.1h-20.2v-84.5h19.5V246h0.7c1.4-3.9,3.8-7,7-9.2c3.3-2.2,7.3-3.3,12-3.3c4.5,0,8.3,1,11.6,2.9
		c3.3,2,5.9,4.7,7.7,8.3c1.8,3.6,2.7,7.8,2.7,12.5v40.4h-20.2v-36.4c0-3.5-0.9-6.3-2.6-8.3c-1.8-2-4.3-3-7.6-3c-2.1,0-4,0.5-5.6,1.4
		c-1.6,0.9-2.9,2.2-3.8,3.9C196.4,257.1,196,259.1,195.9,261.6"/>
	<path d="M303.5,270.9v-5c0-5.2-0.8-9.8-2.3-13.8c-1.5-4-3.6-7.4-6.4-10.2c-2.7-2.7-6-4.8-9.7-6.2c-3.7-1.4-7.9-2.1-12.4-2.1
		c-6.4,0-11.9,1.4-16.6,4.1c-4.7,2.7-8.3,6.6-10.9,11.5c-2.6,4.9-3.9,10.6-3.9,17.2c0,6.7,1.3,12.5,3.9,17.4
		c2.6,4.9,6.3,8.6,11.1,11.3c4.8,2.6,10.5,3.9,17.1,3.9c5.5,0,10.4-0.8,14.6-2.5c4.2-1.7,7.6-4.1,10.2-7.1c2.6-3.1,4.3-6.7,5.1-10.8
		l-18.5-0.5c-0.5,1.4-1.3,2.6-2.4,3.5c-1,1-2.3,1.7-3.8,2.2c-1.5,0.5-3.1,0.7-4.9,0.7c-2.6,0-4.8-0.5-6.7-1.6
		c-1.9-1.1-3.3-2.6-4.3-4.5c-1-1.9-1.5-4.2-1.5-6.8v-0.5H303.5z M267.1,249.6c1.8-1,3.8-1.5,6.1-1.5c2.2,0,4.2,0.5,5.9,1.4
		c1.7,0.9,3.1,2.3,4.1,3.9c1,1.7,1.5,3.6,1.5,5.7h-23.4c0.1-2,0.6-3.9,1.6-5.5C263.9,251.9,265.3,250.6,267.1,249.6"/>
	<path d="M308,297.7v-63.4h19.6v11.6h0.7c1.2-4.2,3-7.3,5.7-9.3c2.6-2,5.7-3.1,9.1-3.1c0.9,0,1.9,0.1,2.9,0.2c1,0.1,1.9,0.3,2.8,0.6
		v17.5c-1-0.3-2.2-0.6-3.8-0.8c-1.6-0.2-2.9-0.3-4.1-0.3c-2.4,0-4.5,0.5-6.5,1.6c-1.9,1.1-3.4,2.5-4.5,4.4c-1.1,1.9-1.6,4.1-1.6,6.6
		v34.4H308z"/>
	<path d="M371.5,298.8c-4,0-7.6-0.7-10.7-2c-3.1-1.4-5.6-3.4-7.4-6.2c-1.8-2.8-2.7-6.2-2.7-10.4c0-3.5,0.6-6.5,1.9-8.9
		c1.2-2.4,2.9-4.4,5.1-5.9c2.2-1.5,4.7-2.7,7.5-3.4c2.8-0.8,5.9-1.3,9.1-1.6c3.6-0.3,6.5-0.7,8.7-1.1c2.2-0.4,3.8-0.9,4.8-1.6
		c1-0.7,1.5-1.7,1.5-3v-0.2c0-2.1-0.7-3.8-2.2-4.9c-1.5-1.2-3.4-1.7-5.9-1.7c-2.7,0-4.8,0.6-6.4,1.7c-1.6,1.2-2.7,2.8-3.1,4.8
		l-18.6-0.7c0.6-3.9,2-7.3,4.3-10.3c2.3-3,5.5-5.4,9.5-7.2c4-1.7,8.9-2.6,14.5-2.6c4,0,7.8,0.5,11.2,1.4c3.4,1,6.4,2.3,8.9,4.1
		c2.5,1.8,4.5,4,5.9,6.6c1.4,2.6,2.1,5.6,2.1,9v43.1h-19v-8.8h-0.5c-1.1,2.1-2.6,4-4.3,5.4c-1.7,1.5-3.8,2.6-6.1,3.3
		C377.1,298.4,374.4,298.8,371.5,298.8 M377.7,285.6c2.2,0,4.1-0.4,5.9-1.3c1.7-0.9,3.1-2.1,4.2-3.7c1-1.6,1.6-3.4,1.6-5.4v-6
		c-0.6,0.3-1.3,0.6-2.1,0.8c-0.8,0.2-1.7,0.5-2.7,0.7c-1,0.2-2,0.4-3,0.6c-1,0.2-2,0.3-2.9,0.5c-1.9,0.3-3.5,0.8-4.8,1.4
		c-1.3,0.6-2.4,1.4-3.1,2.5c-0.7,1-1.1,2.2-1.1,3.6c0,2.1,0.8,3.7,2.2,4.8C373.5,285,375.4,285.6,377.7,285.6"/>
</g>
</svg>
