<svg id="Layer_1" data-name="Layer 1" xmlns="http://www.w3.org/2000/svg" viewBox="0 0 540 540"><defs><style>.cls-1{fill:#8e15f8;}</style></defs><path class="cls-1" d="M361.33,154.93V257.1H326.89V154.93a27.7,27.7,0,0,0-27.67-27.67V92.82A62.18,62.18,0,0,1,361.33,154.93Z"/><path class="cls-1" d="M178.78,224.81V257.1h34.44c.16-23.16-5.79-58.75,27.67-60V162.7A62.18,62.18,0,0,0,178.78,224.81Z"/><rect class="cls-1" x="252.83" y="127.14" width="34.44" height="129.95"/><path d="M94.66,377c-18.59,2.33-28.53-22.44-13.82-33.35,8.06-6.33,21.59-3.73,30-7.67,7.5-10.38-14.87-14-16.06-3.31l-18.55-.66c3-24,42.77-26.88,54.11-7.94,4.08,5.26,1.3,45.21,2.08,51.86H113.5v-8.8H113C109.49,374.11,102.38,377.17,94.66,377Zm6.21-13.16c9.37.45,12.84-8.4,11.6-16.37-5.59,3-14.31,1.14-18.49,6.4C90.73,358.89,95.16,364.39,100.87,363.88Z"/><path d="M138.23,376V312.8h19.53v11.52h.66c2.24-9.86,11.26-14.38,20.36-11.64v17.47c-29.6-8.88-18.43,30.33-20.44,45.82Z"/><path d="M221.8,360.55c-3.83,1.14-10,1.18-9.5-4.44v-28.5h11.39V312.8H212.3V297.66H192.19V312.8h-8.35v14.81h8.35c.29,26.26-6.9,57.93,32.65,47.46Z"/><path d="M249.61,339.94v36H229.5V291.74H249V324.4h.7C255,308,281,308.06,287.88,323.2c5,7.76,1.85,43.61,2.69,52.77H270.46c-1-6.3,2.55-40.1-2.63-44.54C261.4,324.66,248.6,330.05,249.61,339.94Z"/><path d="M356.8,349.24c5.47-35.94-40.12-51.83-58.08-21.74-22,47.75,45.33,69.35,57.87,29.22l-18.47-.53c-5.2,11.93-25.29,6.24-23.44-6.95ZM320.56,328c7.23-4.22,17.86.63,17.52,9.56H314.71A11.31,11.31,0,0,1,320.56,328Z"/><path d="M361.33,376V312.8h19.54v11.52h.65c2.24-9.86,11.26-14.38,20.36-11.64v17.47c-29.6-8.88-18.43,30.33-20.44,45.82Z"/><path d="M424.57,377C406,379.37,396,354.6,410.75,343.69c8.06-6.33,21.59-3.73,30-7.67,7.5-10.38-14.87-14-16.06-3.31l-18.55-.66c3-24,42.77-26.88,54.11-7.94,4.08,5.26,1.3,45.21,2.08,51.86H443.41v-8.8h-.5C439.4,374.11,432.29,377.17,424.57,377Zm6.21-13.16c9.38.45,12.84-8.4,11.6-16.37-5.58,3-14.31,1.14-18.49,6.4C420.64,358.89,425.07,364.39,430.78,363.88Z"/><path d="M294.56,446.22l-12.37-40.59h6.55l8.78,31.08h.42l8.67-31.08h6.66l8.56,31h.43l8.77-31h6.56l-12.37,40.59h-6.14L310.2,415h-.63l-8.88,31.18Z"/><path d="M354.06,447.18a16.35,16.35,0,0,1-7-1.47,11.53,11.53,0,0,1-6.84-11,10.44,10.44,0,0,1,1.37-5.67,9.81,9.81,0,0,1,3.67-3.42,19.88,19.88,0,0,1,5.09-1.87q2.79-.62,5.62-1c2.47-.31,4.47-.56,6-.72a9.32,9.32,0,0,0,3.38-.86,2.23,2.23,0,0,0,1.08-2.12v-.21a8.31,8.31,0,0,0-2.13-6.08q-2.13-2.16-6.44-2.16a11.22,11.22,0,0,0-7,1.95,11.67,11.67,0,0,0-3.57,4.18l-5.92-2.12a14.3,14.3,0,0,1,4.24-5.77,16.1,16.1,0,0,1,5.82-2.91,24.53,24.53,0,0,1,6.22-.83,25.5,25.5,0,0,1,4.51.46,14.83,14.83,0,0,1,4.94,1.89,11.13,11.13,0,0,1,4,4.31,16.11,16.11,0,0,1,1.58,7.72v26.74h-6.23v-5.49h-.32a11,11,0,0,1-2.12,2.82,12.18,12.18,0,0,1-3.93,2.57A15.27,15.27,0,0,1,354.06,447.18Zm.95-5.61a12.45,12.45,0,0,0,6.25-1.45,10.1,10.1,0,0,0,3.86-3.75,9.7,9.7,0,0,0,1.31-4.84v-5.71a3.73,3.73,0,0,1-1.74.86,28.71,28.71,0,0,1-3.06.66q-1.74.27-3.36.48l-2.63.32a25.48,25.48,0,0,0-4.53,1,8,8,0,0,0-3.38,2.09,5.32,5.32,0,0,0-1.29,3.77,5.56,5.56,0,0,0,2.42,4.9A10.67,10.67,0,0,0,355,441.57Z"/><path d="M386.05,392.1v54.12h-6.24V392.1Z"/><path d="M400,392.1v54.12h-6.23V392.1Z"/><path d="M442.06,425.4a26.69,26.69,0,0,0-1.51-9.57,16.67,16.67,0,0,0-4-6.25,15.58,15.58,0,0,0-5.63-3.42,19.16,19.16,0,0,0-6.27-1.06,17.18,17.18,0,0,0-9.61,2.68,17.87,17.87,0,0,0-6.39,7.45,25.11,25.11,0,0,0-2.29,11,24.6,24.6,0,0,0,2.29,10.93,17.16,17.16,0,0,0,6.53,7.3,19,19,0,0,0,10.11,2.6,20.44,20.44,0,0,0,7.42-1.28,15.33,15.33,0,0,0,5.55-3.6,13.14,13.14,0,0,0,3.2-5.38l-6-1.69a9.18,9.18,0,0,1-5.7,5.65,13.53,13.53,0,0,1-4.45.7,13,13,0,0,1-6.64-1.66,11.22,11.22,0,0,1-4.45-4.83A16.71,16.71,0,0,1,412.6,428h29.46Zm-29.45-2.75a13.87,13.87,0,0,1,1.4-5.34,12.16,12.16,0,0,1,4.17-4.77,11.13,11.13,0,0,1,6.43-1.84,10.84,10.84,0,0,1,5.88,1.56,10.46,10.46,0,0,1,3.86,4.26,13.36,13.36,0,0,1,1.36,6.13Z"/><path d="M465,440.41l-1.06.2a9.8,9.8,0,0,1-1.69.12,7.77,7.77,0,0,1-2.61-.44,3.82,3.82,0,0,1-2-1.74,7.93,7.93,0,0,1-.78-4V410.91h8.67v-5.28h-8.67V395.9H450.6v9.73h-6.13v5.28h6.13v25.38a9.87,9.87,0,0,0,1.65,5.86,10.17,10.17,0,0,0,4.18,3.47,12.54,12.54,0,0,0,5.16,1.13,13.43,13.43,0,0,0,2.88-.25,13.63,13.63,0,0,0,1.77-.49Z"/></svg>